<svg width="21" height="18" viewBox="0 0 21 18" fill="none" xmlns="http://www.w3.org/2000/svg">
<path d="M10.2646 5.69841L13.2489 8.68263L13.2631 8.52631C13.2631 6.9584 11.9889 5.6842 10.421 5.6842L10.2646 5.69841Z" fill="#858585"/>
<path d="M10.4212 3.78949C13.0359 3.78949 15.1581 5.91161 15.1581 8.52635C15.1581 9.1374 15.0349 9.72004 14.8218 10.2553L17.5928 13.0263C19.0233 11.8327 20.1507 10.2885 20.847 8.52635C19.2034 4.36741 15.1628 1.42108 10.4212 1.42108C9.09492 1.42108 7.82547 1.65791 6.646 2.08423L8.69231 4.12579C9.22752 3.91738 9.81015 3.78949 10.4212 3.78949Z" fill="#858585"/>
<path fill-rule="evenodd" clip-rule="evenodd" d="M3.10736 3.3679L0.947354 1.2079L2.15525 0L18.9474 16.7969L17.7395 18L14.978 15.2337L14.5753 14.831C13.2916 15.3474 11.8895 15.6316 10.4211 15.6316C5.68422 15.6316 1.63896 12.6853 0 8.52632C0.738948 6.64582 1.97526 5.02107 3.53842 3.79897L3.10736 3.3679ZM7.65002 7.90581L6.18634 6.44213C5.8737 7.07685 5.68422 7.77792 5.68422 8.52632C5.68422 11.1411 7.80634 13.2632 10.4211 13.2632C11.1695 13.2632 11.8706 13.0737 12.5006 12.7611L11.0369 11.2974C10.8379 11.34 10.6342 11.3684 10.4211 11.3684C8.85316 11.3684 7.57897 10.0942 7.57897 8.52632C7.57897 8.31316 7.60739 8.10951 7.65002 7.90581Z" fill="#858585"/>
</svg>
